<svg xmlns="http://www.w3.org/2000/svg" xmlns:xlink="http://www.w3.org/1999/xlink" width="500" zoomAndPan="magnify" viewBox="0 0 375 374.999991" height="500" preserveAspectRatio="xMidYMid meet" version="1.0"><defs><g/><clipPath id="b887508f7c"><path d="M 30.042969 37.574219 L 345.042969 37.574219 L 345.042969 204.691406 L 30.042969 204.691406 Z M 30.042969 37.574219 " clip-rule="nonzero"/></clipPath></defs><g fill="#000000" fill-opacity="1"><g transform="translate(1.867941, 263.184103)"><g><path d="M 13.984375 0 L 19.03125 0 L 24.25 -14.78125 L 29.40625 0 L 34.453125 0 L 45.40625 -31.28125 C 45.90625 -32.71875 46.84375 -33.515625 48.4375 -33.46875 L 48.4375 -33.90625 C 46.109375 -33.90625 42.53125 -33.90625 40.15625 -33.90625 L 40.15625 -33.46875 C 41.6875 -33.515625 42.59375 -33.171875 43.078125 -31.734375 C 43.1875 -31.328125 43.328125 -30.984375 43.4375 -30.640625 C 43.734375 -29.796875 43.671875 -29.046875 43.375 -28.203125 L 33.96875 -1.234375 L 23.5 -31.140625 C 22.90625 -32.765625 23.796875 -33.515625 25.4375 -33.46875 L 25.4375 -33.90625 L 15.421875 -33.90625 L 15.421875 -33.46875 C 17.15625 -33.515625 17.953125 -32.625 18.5 -31.140625 L 23.75 -16.109375 L 18.546875 -1.234375 L 8.078125 -31.140625 C 7.484375 -32.765625 8.375 -33.515625 10.015625 -33.46875 L 10.015625 -33.90625 L 0 -33.90625 L 0 -33.46875 C 1.734375 -33.515625 2.53125 -32.625 3.078125 -31.140625 Z M 13.984375 0 "/></g></g></g><g fill="#000000" fill-opacity="1"><g transform="translate(51.695988, 263.184103)"><g><path d="M 14.125 -26.921875 C 6.75 -26.921875 0.6875 -20.875 0.6875 -13.4375 C 0.6875 -6 6.75 0 14.125 0 C 20.46875 0 25.734375 -4.359375 27.21875 -10.21875 L 26.765625 -10.21875 C 25.09375 -5.359375 21.3125 -2.484375 17.359375 -2.03125 C 11 -1.34375 6.4375 -6.640625 5.109375 -12.296875 C 4.8125 -13.53125 4.703125 -14.71875 4.65625 -15.921875 C 11.40625 -15.921875 18.34375 -15.921875 25.09375 -15.921875 C 25.140625 -21.21875 21.015625 -26.921875 14.125 -26.921875 Z M 20.625 -16.8125 L 4.703125 -16.8125 C 4.90625 -20.828125 6.84375 -24.1875 9.96875 -25.28125 C 14.421875 -26.875 19.9375 -23.546875 20.625 -16.8125 Z M 20.625 -16.8125 "/></g></g></g><g fill="#000000" fill-opacity="1"><g transform="translate(80.601213, 263.184103)"><g><path d="M 22.453125 -6.984375 L 22.453125 -37.1875 C 21.125 -35.25 17.75 -33.90625 14.828125 -33.90625 L 14.828125 -33.46875 C 16.953125 -33.5625 18 -32.171875 18 -26.921875 L 18 -21.125 C 16.109375 -24.296875 13.140625 -26.921875 9.21875 -26.921875 C 3.03125 -26.921875 0 -21.078125 0 -15.5625 C 0 -6.640625 5.25 0 14.53125 0 L 25.625 0 L 25.625 -0.453125 C 23.5 -0.34375 22.453125 -1.734375 22.453125 -6.984375 Z M 18 -6.984375 C 18 -2.625 16.65625 -0.890625 14.234375 -0.890625 C 11.75 -0.890625 8.71875 -3.125 6.9375 -6.203125 C 4.5625 -10.359375 3.21875 -17.546875 6.046875 -21.8125 C 8.875 -26.03125 14.671875 -26.171875 18 -19.140625 Z M 18 -6.984375 "/></g></g></g><g fill="#000000" fill-opacity="1"><g transform="translate(107.473648, 263.184103)"><g><path d="M 22.453125 -6.984375 L 22.453125 -37.1875 C 21.125 -35.25 17.75 -33.90625 14.828125 -33.90625 L 14.828125 -33.46875 C 16.953125 -33.5625 18 -32.171875 18 -26.921875 L 18 -21.125 C 16.109375 -24.296875 13.140625 -26.921875 9.21875 -26.921875 C 3.03125 -26.921875 0 -21.078125 0 -15.5625 C 0 -6.640625 5.25 0 14.53125 0 L 25.625 0 L 25.625 -0.453125 C 23.5 -0.34375 22.453125 -1.734375 22.453125 -6.984375 Z M 18 -6.984375 C 18 -2.625 16.65625 -0.890625 14.234375 -0.890625 C 11.75 -0.890625 8.71875 -3.125 6.9375 -6.203125 C 4.5625 -10.359375 3.21875 -17.546875 6.046875 -21.8125 C 8.875 -26.03125 14.671875 -26.171875 18 -19.140625 Z M 18 -6.984375 "/></g></g></g><g fill="#000000" fill-opacity="1"><g transform="translate(134.346095, 263.184103)"><g><path d="M 7.640625 -6.984375 L 7.640625 -26.921875 C 6.296875 -24.984375 2.921875 -23.65625 0 -23.65625 L 0 -23.203125 C 2.125 -23.296875 3.171875 -21.859375 3.171875 -16.609375 L 3.171875 -6.984375 C 3.171875 -1.734375 2.125 -0.34375 0 -0.453125 L 0 0 L 10.8125 0 L 10.8125 -0.453125 C 8.671875 -0.34375 7.640625 -1.734375 7.640625 -6.984375 Z M 5.40625 -33.90625 C 3.625 -33.90625 2.125 -32.46875 2.125 -30.6875 C 2.125 -28.859375 3.625 -27.421875 5.40625 -27.421875 C 7.1875 -27.421875 8.671875 -28.859375 8.671875 -30.6875 C 8.671875 -32.46875 7.1875 -33.90625 5.40625 -33.90625 Z M 5.40625 -33.90625 "/></g></g></g><g fill="#000000" fill-opacity="1"><g transform="translate(146.394068, 263.184103)"><g><path d="M 30.9375 -2.03125 L 30.59375 -2.328125 C 29.34375 -1.34375 28.015625 -2.421875 27.359375 -3.375 C 24.390625 -7.828125 24.59375 -17.359375 21.96875 -22.953125 C 20.671875 -25.734375 18.59375 -26.921875 16.265625 -26.921875 C 12.6875 -26.921875 9.8125 -23.890625 7.640625 -20.96875 L 7.640625 -26.921875 C 6.296875 -24.984375 2.921875 -23.65625 0 -23.65625 L 0 -23.203125 C 2.125 -23.296875 3.171875 -21.859375 3.171875 -16.609375 L 3.171875 -6.984375 C 3.171875 -1.734375 2.125 -0.34375 0 -0.453125 L 0 0 L 10.8125 0 L 10.8125 -0.453125 C 8.671875 -0.34375 7.640625 -1.734375 7.640625 -6.984375 L 7.640625 -19.390625 C 8.421875 -20.53125 9.46875 -21.8125 10.609375 -22.8125 C 13.34375 -25.140625 16.359375 -25.484375 17.84375 -21.671875 C 19.984375 -16.15625 19.828125 -9.625 22.0625 -4.171875 C 23 -1.828125 24.34375 0 27.3125 0 C 28.75 0 30.1875 -0.59375 30.9375 -2.03125 Z M 30.9375 -2.03125 "/></g></g></g><g fill="#000000" fill-opacity="1"><g transform="translate(178.62117, 263.184103)"><g><path d="M 10.609375 -26.921875 C 4.765625 -26.921875 0.046875 -22.21875 0.046875 -16.359375 C 0.046875 -13.28125 1.390625 -10.515625 3.46875 -8.578125 C 1.734375 -7.734375 0.25 -6.4375 0.046875 -4.3125 C -0.34375 -0.34375 3.671875 1.140625 6.984375 1.09375 C 11.40625 0.9375 16.3125 -1.9375 20.375 -3.171875 C 27.671875 -5.40625 29.703125 -0.6875 24.796875 2.53125 C 20.171875 5.546875 6.390625 7.984375 1.046875 3.421875 C 0.25 2.78125 -0.890625 1.59375 0.046875 0.59375 L -0.15625 0.296875 C -1.78125 1.390625 -2.03125 3.859375 -1.28125 5.546875 C 0.34375 9.265625 6.6875 10.265625 10.21875 10.265625 C 15.671875 10.265625 24.59375 9.078125 27.609375 3.8125 C 30.640625 -1.34375 26.625 -7.984375 19.1875 -6.75 C 12.796875 -5.703125 4.171875 -0.796875 1.734375 -3.859375 C 0.984375 -4.8125 1.4375 -6.203125 2.78125 -7.140625 C 3.171875 -7.4375 3.671875 -7.6875 4.21875 -7.9375 C 6 -6.59375 8.234375 -5.796875 10.609375 -5.796875 C 16.453125 -5.796875 21.171875 -10.515625 21.171875 -16.359375 C 21.171875 -19.734375 19.578125 -22.75 17.109375 -24.6875 C 20.375 -26.421875 23.203125 -23.296875 25.09375 -20.578125 L 26.671875 -24.6875 C 25.140625 -25.984375 23.15625 -26.921875 21.125 -26.921875 C 19.328125 -26.921875 17.75 -26.28125 16.3125 -25.28125 C 14.671875 -26.328125 12.6875 -26.921875 10.609375 -26.921875 Z M 7.4375 -25.484375 C 10.609375 -26.625 14.625 -23.40625 16.40625 -18.390625 C 18.140625 -13.34375 17 -8.328125 13.78125 -7.234375 C 10.609375 -6.09375 6.59375 -9.265625 4.859375 -14.328125 C 3.078125 -19.390625 4.21875 -24.390625 7.4375 -25.484375 Z M 7.4375 -25.484375 "/></g></g></g><g fill="#000000" fill-opacity="1"><g transform="translate(208.517992, 263.184103)"><g/></g></g><g fill="#000000" fill-opacity="1"><g transform="translate(223.04497, 263.184103)"><g><path d="M 0 0 L 12.890625 0 C 20.96875 0 29.15625 -2.625 29.15625 -17.15625 C 29.15625 -31.734375 20.875 -33.90625 12.890625 -33.90625 L 0 -33.90625 L 0 -33.46875 C 2.125 -33.5625 3.171875 -32.125 3.171875 -26.875 L 3.171875 -6.984375 C 3.171875 -1.734375 2.125 -0.34375 0 -0.453125 Z M 7.890625 -33.015625 L 14.28125 -33.015625 C 20.96875 -33.015625 24.4375 -26.53125 24.4375 -17.15625 C 24.4375 -7.78125 21.125 -0.890625 14.28125 -0.890625 L 7.890625 -0.890625 Z M 7.890625 -33.015625 "/></g></g></g><g fill="#000000" fill-opacity="1"><g transform="translate(253.735085, 263.184103)"><g><path d="M 28.203125 -2.03125 L 27.859375 -2.328125 C 26.671875 -1.34375 25.28125 -2.421875 24.6875 -3.375 C 22.5625 -6.546875 22.0625 -12.296875 20.96875 -17.359375 C 19.640625 -23.890625 17.84375 -26.921875 10.515625 -26.921875 C 6.6875 -26.921875 2.96875 -26.078125 0.046875 -24.6875 L 1.640625 -20.53125 C 2.734375 -22.015625 5.0625 -24.34375 7.390625 -25.390625 C 11.109375 -27.0625 14.421875 -24.890625 12.296875 -20.71875 C 9.859375 -15.8125 0.453125 -14.421875 0 -7.046875 C -0.25 -2.421875 3.078125 0 7.390625 0 C 14.421875 0 16.953125 -5.546875 17.40625 -11.453125 C 17.796875 -9.125 18.296875 -6.84375 18.984375 -4.90625 C 19.984375 -2.234375 21.421875 0 24.640625 0 C 26.078125 0 27.46875 -0.59375 28.203125 -2.03125 Z M 16.109375 -18.734375 C 16.90625 -15.46875 16.75 -10.90625 15.609375 -7.6875 C 14.53125 -4.5625 11.453125 -1.59375 7.78125 -2.484375 C 4.953125 -3.171875 4.171875 -5.75 4.65625 -8.1875 C 5.703125 -12.9375 11.0625 -14.671875 13.1875 -18.5 C 13.984375 -19.875 14.421875 -21.859375 14.03125 -23.5 C 15.015625 -22.21875 15.671875 -20.53125 16.109375 -18.734375 Z M 16.109375 -18.734375 "/></g></g></g><g fill="#000000" fill-opacity="1"><g transform="translate(283.086536, 263.184103)"><g><path d="M 30.9375 -2.03125 L 30.59375 -2.328125 C 29.34375 -1.34375 28.015625 -2.421875 27.359375 -3.375 C 24.390625 -7.828125 24.59375 -17.359375 21.96875 -22.953125 C 20.671875 -25.734375 18.59375 -26.921875 16.265625 -26.921875 C 12.6875 -26.921875 9.8125 -23.890625 7.640625 -20.96875 L 7.640625 -26.921875 C 6.296875 -24.984375 2.921875 -23.65625 0 -23.65625 L 0 -23.203125 C 2.125 -23.296875 3.171875 -21.859375 3.171875 -16.609375 L 3.171875 -6.984375 C 3.171875 -1.734375 2.125 -0.34375 0 -0.453125 L 0 0 L 10.8125 0 L 10.8125 -0.453125 C 8.671875 -0.34375 7.640625 -1.734375 7.640625 -6.984375 L 7.640625 -19.390625 C 8.421875 -20.53125 9.46875 -21.8125 10.609375 -22.8125 C 13.34375 -25.140625 16.359375 -25.484375 17.84375 -21.671875 C 19.984375 -16.15625 19.828125 -9.625 22.0625 -4.171875 C 23 -1.828125 24.34375 0 27.3125 0 C 28.75 0 30.1875 -0.59375 30.9375 -2.03125 Z M 30.9375 -2.03125 "/></g></g></g><g fill="#000000" fill-opacity="1"><g transform="translate(315.313638, 263.184103)"><g><path d="M 23.453125 -24.6875 C 20.53125 -26.171875 17.453125 -26.921875 14.484375 -26.921875 C 7.140625 -26.921875 0.75 -20.875 0.75 -13.4375 C 0.75 -9.328125 2.625 -5.609375 5.546875 -3.171875 C 7.890625 -1.1875 10.90625 0 14.171875 0 C 20.53125 0 25.78125 -4.359375 27.265625 -10.21875 L 26.828125 -10.21875 C 25.140625 -5.359375 21.375 -2.484375 17.40625 -2.03125 C 11.0625 -1.34375 6.5 -6.640625 5.15625 -12.296875 C 3.765625 -18.1875 5.75 -23.796875 10.015625 -25.28125 C 14.234375 -26.765625 18.046875 -25.140625 21.765625 -20.71875 Z M 23.453125 -24.6875 "/></g></g></g><g fill="#000000" fill-opacity="1"><g transform="translate(344.218868, 263.184103)"><g><path d="M 14.125 -26.921875 C 6.75 -26.921875 0.6875 -20.875 0.6875 -13.4375 C 0.6875 -6 6.75 0 14.125 0 C 20.46875 0 25.734375 -4.359375 27.21875 -10.21875 L 26.765625 -10.21875 C 25.09375 -5.359375 21.3125 -2.484375 17.359375 -2.03125 C 11 -1.34375 6.4375 -6.640625 5.109375 -12.296875 C 4.8125 -13.53125 4.703125 -14.71875 4.65625 -15.921875 C 11.40625 -15.921875 18.34375 -15.921875 25.09375 -15.921875 C 25.140625 -21.21875 21.015625 -26.921875 14.125 -26.921875 Z M 20.625 -16.8125 L 4.703125 -16.8125 C 4.90625 -20.828125 6.84375 -24.1875 9.96875 -25.28125 C 14.421875 -26.875 19.9375 -23.546875 20.625 -16.8125 Z M 20.625 -16.8125 "/></g></g></g><g fill="#1e1815" fill-opacity="1"><g transform="translate(117.498508, 324.861052)"><g><path d="M 28.046875 -19.125 L 21.828125 0.21875 L 19.34375 0.21875 L 14.265625 -15.578125 L 9.171875 0.21875 L 6.6875 0.21875 L 0.78125 -19.125 L 3.4375 -19.125 L 7.984375 -2.890625 L 13.140625 -19.125 L 15.40625 -19.125 L 20.609375 -2.84375 L 25.390625 -19.125 Z M 28.046875 -19.125 "/></g></g></g><g fill="#1e1815" fill-opacity="1"><g transform="translate(154.731962, 324.861052)"><g><path d="M 10.9375 0.453125 C 8.945312 0.453125 7.242188 0.0078125 5.828125 -0.875 C 4.421875 -1.769531 3.359375 -2.976562 2.640625 -4.5 C 1.929688 -6.019531 1.578125 -7.695312 1.578125 -9.53125 C 1.578125 -11.375 1.929688 -13.046875 2.640625 -14.546875 C 3.359375 -16.054688 4.421875 -17.253906 5.828125 -18.140625 C 7.242188 -19.035156 8.945312 -19.484375 10.9375 -19.484375 C 12.925781 -19.484375 14.628906 -19.035156 16.046875 -18.140625 C 17.460938 -17.253906 18.523438 -16.054688 19.234375 -14.546875 C 19.953125 -13.046875 20.3125 -11.382812 20.3125 -9.5625 C 20.3125 -7.707031 19.953125 -6.019531 19.234375 -4.5 C 18.523438 -2.976562 17.460938 -1.769531 16.046875 -0.875 C 14.628906 0.0078125 12.925781 0.453125 10.9375 0.453125 Z M 10.9375 -1.578125 C 12.363281 -1.578125 13.582031 -1.914062 14.59375 -2.59375 C 15.601562 -3.28125 16.367188 -4.226562 16.890625 -5.4375 C 17.421875 -6.644531 17.6875 -8.007812 17.6875 -9.53125 C 17.6875 -11.050781 17.421875 -12.410156 16.890625 -13.609375 C 16.367188 -14.804688 15.597656 -15.753906 14.578125 -16.453125 C 13.554688 -17.148438 12.34375 -17.5 10.9375 -17.5 C 9.507812 -17.5 8.285156 -17.148438 7.265625 -16.453125 C 6.242188 -15.753906 5.46875 -14.804688 4.9375 -13.609375 C 4.414062 -12.410156 4.15625 -11.050781 4.15625 -9.53125 C 4.15625 -8.007812 4.414062 -6.644531 4.9375 -5.4375 C 5.46875 -4.226562 6.242188 -3.28125 7.265625 -2.59375 C 8.285156 -1.914062 9.507812 -1.578125 10.9375 -1.578125 Z M 10.9375 -1.578125 "/></g></g></g><g fill="#1e1815" fill-opacity="1"><g transform="translate(185.019589, 324.861052)"><g><path d="M 9.203125 -8.40625 L 5.703125 -8.40625 L 5.703125 0 L 3.125 0 L 3.125 -19.125 L 9.53125 -19.125 C 11.707031 -19.125 13.359375 -18.65625 14.484375 -17.71875 C 15.609375 -16.78125 16.171875 -15.492188 16.171875 -13.859375 C 16.171875 -12.492188 15.804688 -11.375 15.078125 -10.5 C 14.347656 -9.632812 13.269531 -9.0625 11.84375 -8.78125 L 18.078125 0 L 15.078125 0 Z M 5.703125 -10.375 L 9.53125 -10.375 C 12.226562 -10.375 13.578125 -11.507812 13.578125 -13.78125 C 13.578125 -14.851562 13.226562 -15.6875 12.53125 -16.28125 C 11.84375 -16.882812 10.84375 -17.1875 9.53125 -17.1875 L 5.703125 -17.1875 Z M 5.703125 -10.375 "/></g></g></g><g fill="#1e1815" fill-opacity="1"><g transform="translate(212.607625, 324.861052)"><g><path d="M 14.84375 -1.9375 L 14.84375 0 L 3.125 0 L 3.125 -19.125 L 5.703125 -19.125 L 5.703125 -1.9375 Z M 14.84375 -1.9375 "/></g></g></g><g fill="#1e1815" fill-opacity="1"><g transform="translate(236.793052, 324.861052)"><g><path d="M 9.8125 -19.125 C 11.800781 -19.125 13.492188 -18.710938 14.890625 -17.890625 C 16.285156 -17.066406 17.332031 -15.929688 18.03125 -14.484375 C 18.738281 -13.035156 19.09375 -11.40625 19.09375 -9.59375 C 19.09375 -7.71875 18.738281 -6.054688 18.03125 -4.609375 C 17.332031 -3.171875 16.285156 -2.039062 14.890625 -1.21875 C 13.492188 -0.40625 11.800781 0 9.8125 0 L 3.125 0 L 3.125 -19.125 Z M 9.8125 -1.96875 C 11.945312 -1.96875 13.597656 -2.648438 14.765625 -4.015625 C 15.929688 -5.390625 16.515625 -7.238281 16.515625 -9.5625 C 16.515625 -11.863281 15.925781 -13.703125 14.75 -15.078125 C 13.582031 -16.460938 11.9375 -17.15625 9.8125 -17.15625 L 5.703125 -17.15625 L 5.703125 -1.96875 Z M 9.8125 -1.96875 "/></g></g></g><g clip-path="url(#b887508f7c)"><path fill="#000000" d="M 124.621094 139.285156 C 119.078125 145.167969 114.09375 159.234375 120.597656 161.769531 C 126.703125 159.042969 127.058594 145.0625 124.621094 139.285156 Z M 144.417969 122.765625 C 146.359375 122.605469 182.566406 96.625 192.824219 74.933594 C 201.316406 56.976562 185.949219 29.386719 159.503906 65.640625 C 152.382812 75.402344 149.855469 84.15625 147.085938 94.859375 C 145.15625 96.074219 143.179688 95.082031 143.066406 92.660156 C 142.605469 82.984375 144.675781 80.59375 144.605469 79.054688 C 144.011719 65.503906 143.011719 46.800781 131.328125 41.152344 C 119.980469 35.667969 117.757812 55.488281 119.765625 67.980469 C 122.539062 85.257812 135.066406 108.0625 144.417969 122.765625 Z M 124.054688 137.089844 C 124.046875 135.765625 117.765625 112.253906 87.945312 106.792969 C 63.332031 102.285156 43.480469 117.746094 37.964844 140.957031 C 29.359375 177.183594 60.628906 203.160156 91.199219 199.335938 C 122.460938 195.425781 175.050781 161.25 175.464844 159.765625 C 162.105469 151.085938 150.140625 140.835938 140.960938 127.59375 C 136.742188 129.933594 132.734375 132.347656 129.019531 135.261719 C 137.839844 165.214844 115.113281 169.070312 114.84375 158.082031 C 114.550781 146.171875 123.699219 137.808594 124.054688 137.089844 Z M 184.832031 159.820312 C 184.9375 160.179688 251.925781 210.851562 298.984375 200.621094 C 332.507812 193.335938 345.25 160.203125 336.824219 133.65625 C 315.632812 66.878906 243.675781 121.320312 221.898438 135.164062 C 210.371094 142.488281 185.070312 159.359375 184.832031 159.820312 Z M 128.46875 133.296875 C 138.316406 125.527344 140.390625 126.785156 139.378906 125.21875 C 130.992188 112.230469 118.152344 88.328125 114.34375 74.332031 C 110.589844 60.523438 111.265625 39.28125 125.140625 37.707031 C 136.199219 36.453125 143.976562 44.289062 146.324219 55.027344 C 147.496094 60.382812 148.167969 66.484375 148.371094 71.097656 C 150.058594 70.15625 161.8125 42.277344 185.480469 43.875 C 205.792969 45.25 206.433594 69.554688 189.890625 88.558594 C 171.328125 109.875 146.15625 124.378906 145.890625 124.695312 C 145.875 125.296875 151.292969 132.714844 157.625 138.773438 C 164.695312 145.539062 171.984375 151.535156 179.976562 156.769531 C 181.46875 156.34375 226.316406 122.605469 261.042969 105.121094 C 301.878906 84.5625 336.035156 105.332031 343.386719 134.042969 C 352.015625 167.734375 326.625 210.882812 273.882812 203.949219 C 251.488281 201.007812 236.492188 198.003906 180.234375 162.84375 C 153.25 180.78125 106.570312 207.464844 74.574219 201.878906 C 12.550781 191.050781 18.78125 114.03125 71.855469 103.925781 C 85.621094 101.300781 106.214844 105.898438 118.140625 117.671875 C 126.257812 125.6875 127.617188 132.410156 128.46875 133.296875 " fill-opacity="1" fill-rule="nonzero"/></g></svg>